<svg xmlns="http://www.w3.org/2000/svg" viewBox="0 0 1024 1024">
<defs><filter id="soft" x="-25%" y="-25%" width="150%" height="150%">
<feDropShadow dx="0" dy="9" stdDeviation="14" flood-color="#3B2E24" flood-opacity="0.32"/></filter></defs>
<rect x="0" y="0.0" width="1024" height="51.8" fill="#74A491"/><rect x="0" y="51.2" width="1024" height="51.8" fill="#4E6B5C"/><rect x="0" y="102.4" width="1024" height="51.8" fill="#8A8B5C"/><rect x="0" y="153.6" width="1024" height="51.8" fill="#4E7B8C"/><rect x="0" y="204.8" width="1024" height="51.8" fill="#87A7BC"/><rect x="0" y="256.0" width="1024" height="51.8" fill="#52657E"/><rect x="0" y="307.2" width="1024" height="51.8" fill="#8B7A9E"/><rect x="0" y="358.4" width="1024" height="51.8" fill="#6D4A68"/><rect x="0" y="409.6" width="1024" height="51.8" fill="#8C5A74"/><rect x="0" y="460.8" width="1024" height="51.8" fill="#C0868E"/><rect x="0" y="512.0" width="1024" height="51.8" fill="#C46E7E"/><rect x="0" y="563.2" width="1024" height="51.8" fill="#A34A5E"/><rect x="0" y="614.4" width="1024" height="51.8" fill="#DE9273"/><rect x="0" y="665.6" width="1024" height="51.8" fill="#A8574A"/><rect x="0" y="716.8" width="1024" height="51.8" fill="#CC7F33"/><rect x="0" y="768.0" width="1024" height="51.8" fill="#E2C878"/><rect x="0" y="819.2" width="1024" height="51.8" fill="#C2AC85"/><rect x="0" y="870.4" width="1024" height="51.8" fill="#9C6B3F"/><rect x="0" y="921.6" width="1024" height="51.8" fill="#6F4E37"/><rect x="0" y="972.8" width="1024" height="51.8" fill="#94897B"/>
<g filter="url(#soft)" transform="rotate(-4 512 520)">
  <path d="M 512 410 C 494 348, 444 308, 384 314 C 308 322, 252 372, 258 444 C 264 534, 362 616, 520 742 C 668 618, 762 536, 766 446 C 770 366, 706 310, 638 320" fill="none" stroke="#FFFFFF" stroke-width="42" stroke-linecap="round" stroke-linejoin="round"/>
</g>
<g filter="url(#soft)" transform="translate(622,312) rotate(-52)">
  <path d="M 0 0 L 58 -24 L 58 24 Z" fill="#FFFFFF"/>
  <path d="M 0 0 L 16 -8 L 16 8 Z" fill="#3B2E24"/>
  <rect x="58" y="-24" width="288" height="48" rx="7" fill="#FFFFFF"/>
  <rect x="292" y="-24" width="8" height="48" fill="#3B2E24" opacity="0.16"/>
  <rect x="308" y="-24" width="8" height="48" fill="#3B2E24" opacity="0.16"/>
</g>
</svg>