<svg xmlns="http://www.w3.org/2000/svg" viewBox="0 0 1024 1024">
<rect width="1024" height="1024" fill="#F2EEE5"/>
<rect x="0.0" y="884" width="51.8" height="90" fill="#74A491"/><rect x="51.2" y="884" width="51.8" height="90" fill="#4E6B5C"/><rect x="102.4" y="884" width="51.8" height="90" fill="#8A8B5C"/><rect x="153.6" y="884" width="51.8" height="90" fill="#4E7B8C"/><rect x="204.8" y="884" width="51.8" height="90" fill="#87A7BC"/><rect x="256.0" y="884" width="51.8" height="90" fill="#52657E"/><rect x="307.2" y="884" width="51.8" height="90" fill="#8B7A9E"/><rect x="358.4" y="884" width="51.8" height="90" fill="#6D4A68"/><rect x="409.6" y="884" width="51.8" height="90" fill="#8C5A74"/><rect x="460.8" y="884" width="51.8" height="90" fill="#C0868E"/><rect x="512.0" y="884" width="51.8" height="90" fill="#C46E7E"/><rect x="563.2" y="884" width="51.8" height="90" fill="#A34A5E"/><rect x="614.4" y="884" width="51.8" height="90" fill="#DE9273"/><rect x="665.6" y="884" width="51.8" height="90" fill="#A8574A"/><rect x="716.8" y="884" width="51.8" height="90" fill="#CC7F33"/><rect x="768.0" y="884" width="51.8" height="90" fill="#E2C878"/><rect x="819.2" y="884" width="51.8" height="90" fill="#C2AC85"/><rect x="870.4" y="884" width="51.8" height="90" fill="#9C6B3F"/><rect x="921.6" y="884" width="51.8" height="90" fill="#6F4E37"/><rect x="972.8" y="884" width="51.8" height="90" fill="#94897B"/>
<text x="512" y="420" font-family="Nunito" font-size="228" font-weight="800" fill="#74A491" text-anchor="middle" letter-spacing="6">GODE</text>
<text x="512" y="660" font-family="Nunito" font-size="228" font-weight="800" fill="#4E7B8C" text-anchor="middle" letter-spacing="6">DAGER</text>
</svg>
